<svg width="549" height="43" viewBox="0 0 549 43" fill="none" xmlns="http://www.w3.org/2000/svg">
<path d="M2.23438 37.1406C1.64062 37.1406 1.15625 37 0.78125 36.7188C0.40625 36.4375 0.21875 35.9844 0.21875 35.3594C0.21875 35.2969 0.21875 35.1719 0.21875 34.9844C0.25 34.7969 0.28125 34.6875 0.3125 34.6562L8.09375 3.10938C8.28125 2.29687 8.59375 1.64062 9.03125 1.14062C9.5 0.640625 10.1719 0.390625 11.0469 0.390625C11.9531 0.390625 12.625 0.671875 13.0625 1.23438C13.5312 1.79688 13.8594 2.48437 14.0469 3.29688L21.7344 34.6562C21.7656 34.6875 21.7812 34.7969 21.7812 34.9844C21.8125 35.1719 21.8281 35.2969 21.8281 35.3594C21.8281 35.9844 21.6406 36.4375 21.2656 36.7188C20.9219 37 20.4375 37.1406 19.8125 37.1406C19.2188 37.1406 18.75 36.9531 18.4062 36.5781C18.0625 36.2031 17.8281 35.75 17.7031 35.2188L15.7812 26.9688H6.3125L4.34375 35.2188C4.21875 35.75 3.98438 36.2031 3.64062 36.5781C3.29688 36.9531 2.82812 37.1406 2.23438 37.1406ZM7.20312 23.125H14.8438L11.0469 7L7.20312 23.125ZM27.3125 37.1406C26.5312 37.1406 25.9844 36.9062 25.6719 36.4375C25.3594 35.9375 25.2031 35.3281 25.2031 34.6094V2.92188C25.2031 2.20312 25.3594 1.60938 25.6719 1.14062C25.9844 0.640625 26.5312 0.390625 27.3125 0.390625C28.125 0.390625 28.6719 0.640625 28.9531 1.14062C29.2656 1.60938 29.4219 2.20312 29.4219 2.92188V23.125L40.8125 12.25C41.0625 12.0312 41.3281 11.8438 41.6094 11.6875C41.8906 11.5 42.1875 11.4062 42.5 11.4062C43.8125 11.4062 44.4688 12.0312 44.4688 13.2812C44.4688 13.5938 44.3594 13.8906 44.1406 14.1719C43.9531 14.4219 43.75 14.6562 43.5312 14.875L36.4531 21.4375L44.9844 33.5781C45.1406 33.7969 45.2812 34.0469 45.4062 34.3281C45.5312 34.5781 45.5938 34.8438 45.5938 35.125C45.5938 36.4688 44.8906 37.1406 43.4844 37.1406C43.0469 37.1406 42.6406 37 42.2656 36.7188C41.9219 36.4375 41.625 36.125 41.375 35.7812L33.5 24.2031L29.4219 28V34.6094C29.4219 35.3281 29.2656 35.9375 28.9531 36.4375C28.6719 36.9062 28.125 37.1406 27.3125 37.1406ZM56.5625 37.1406C54.375 37.1406 52.5156 36.5469 50.9844 35.3594C49.4844 34.1719 48.7344 32.4219 48.7344 30.1094C48.7344 28.3906 49.0781 26.9844 49.7656 25.8906C50.4531 24.7656 51.375 23.8906 52.5312 23.2656C53.6875 22.6406 54.9531 22.1875 56.3281 21.9062C57.7344 21.5938 59.1562 21.4062 60.5938 21.3438C62.0625 21.25 63.4219 21.1875 64.6719 21.1562C64.6719 19.8438 64.5625 18.75 64.3438 17.875C64.125 17 63.6562 16.3438 62.9375 15.9062C62.2188 15.4375 61.1094 15.2031 59.6094 15.2031C58.3594 15.2031 57.4062 15.4219 56.75 15.8594C56.0938 16.2969 55.5625 16.8125 55.1562 17.4062C54.7812 17.9688 54.375 18.4688 53.9375 18.9062C53.5312 19.3438 52.9375 19.5625 52.1562 19.5625C51.5312 19.5625 51 19.4219 50.5625 19.1406C50.1562 18.8281 49.9531 18.3281 49.9531 17.6406C49.9531 17.1094 50.0781 16.6094 50.3281 16.1406C50.5781 15.6406 50.8594 15.1875 51.1719 14.7812C52.1719 13.5 53.3906 12.625 54.8281 12.1562C56.2656 11.6562 57.7656 11.4062 59.3281 11.4062C61.1719 11.4062 62.7969 11.6875 64.2031 12.25C65.6406 12.7812 66.7656 13.6562 67.5781 14.875C68.4219 16.0625 68.8438 17.6562 68.8438 19.6562V35.0312C68.8438 36.4375 68.1406 37.1406 66.7344 37.1406C65.9219 37.1406 65.375 36.9375 65.0938 36.5312C64.8125 36.125 64.6719 35.625 64.6719 35.0312C64.6719 34.4375 64.6719 33.8438 64.6719 33.25C63.6094 34.4062 62.3906 35.3438 61.0156 36.0625C59.6719 36.7812 58.1875 37.1406 56.5625 37.1406ZM56.8438 33.5312C57.8438 33.5312 58.7969 33.3594 59.7031 33.0156C60.6406 32.6406 61.4844 32.1406 62.2344 31.5156C62.6719 31.1406 63.1875 30.625 63.7812 29.9688C64.375 29.2812 64.6719 28.6094 64.6719 27.9531V24.3438C63.8906 24.375 63 24.4219 62 24.4844C61 24.5156 59.9688 24.625 58.9062 24.8125C57.875 24.9688 56.9062 25.25 56 25.6562C55.0938 26.0312 54.3594 26.5781 53.7969 27.2969C53.2656 27.9844 53 28.875 53 29.9688C53 31.2188 53.3281 32.125 53.9844 32.6875C54.6719 33.25 55.625 33.5312 56.8438 33.5312ZM76.6719 36.4844C75.7031 36.4844 74.8906 36.2812 74.2344 35.875C73.5781 35.4688 73.25 34.7344 73.25 33.6719C73.25 33.2344 73.3438 32.8281 73.5312 32.4531C73.75 32.0469 73.9844 31.6875 74.2344 31.375L86.8906 15.9531H75.9219C75.2656 15.9531 74.7031 15.8125 74.2344 15.5312C73.7969 15.25 73.5781 14.75 73.5781 14.0312C73.5781 13.3125 73.7969 12.8125 74.2344 12.5312C74.7031 12.25 75.2656 12.1094 75.9219 12.1094H88.8125C89.75 12.1094 90.5469 12.2969 91.2031 12.6719C91.8906 13.0469 92.2344 13.7656 92.2344 14.8281C92.2344 15.2344 92.1406 15.625 91.9531 16C91.7656 16.3438 91.5469 16.6719 91.2969 16.9844L78.4531 32.6406H90.4062C91.0625 32.6406 91.6094 32.7812 92.0469 33.0625C92.5156 33.3438 92.75 33.8438 92.75 34.5625C92.75 35.2812 92.5156 35.7812 92.0469 36.0625C91.6094 36.3438 91.0625 36.4844 90.4062 36.4844H76.6719ZM104.562 37.1406C102.375 37.1406 100.516 36.5469 98.9844 35.3594C97.4844 34.1719 96.7344 32.4219 96.7344 30.1094C96.7344 28.3906 97.0781 26.9844 97.7656 25.8906C98.4531 24.7656 99.375 23.8906 100.531 23.2656C101.688 22.6406 102.953 22.1875 104.328 21.9062C105.734 21.5938 107.156 21.4062 108.594 21.3438C110.062 21.25 111.422 21.1875 112.672 21.1562C112.672 19.8438 112.562 18.75 112.344 17.875C112.125 17 111.656 16.3438 110.938 15.9062C110.219 15.4375 109.109 15.2031 107.609 15.2031C106.359 15.2031 105.406 15.4219 104.75 15.8594C104.094 16.2969 103.562 16.8125 103.156 17.4062C102.781 17.9688 102.375 18.4688 101.938 18.9062C101.531 19.3438 100.938 19.5625 100.156 19.5625C99.5312 19.5625 99 19.4219 98.5625 19.1406C98.1562 18.8281 97.9531 18.3281 97.9531 17.6406C97.9531 17.1094 98.0781 16.6094 98.3281 16.1406C98.5781 15.6406 98.8594 15.1875 99.1719 14.7812C100.172 13.5 101.391 12.625 102.828 12.1562C104.266 11.6562 105.766 11.4062 107.328 11.4062C109.172 11.4062 110.797 11.6875 112.203 12.25C113.641 12.7812 114.766 13.6562 115.578 14.875C116.422 16.0625 116.844 17.6562 116.844 19.6562V35.0312C116.844 36.4375 116.141 37.1406 114.734 37.1406C113.922 37.1406 113.375 36.9375 113.094 36.5312C112.812 36.125 112.672 35.625 112.672 35.0312C112.672 34.4375 112.672 33.8438 112.672 33.25C111.609 34.4062 110.391 35.3438 109.016 36.0625C107.672 36.7812 106.188 37.1406 104.562 37.1406ZM104.844 33.5312C105.844 33.5312 106.797 33.3594 107.703 33.0156C108.641 32.6406 109.484 32.1406 110.234 31.5156C110.672 31.1406 111.188 30.625 111.781 29.9688C112.375 29.2812 112.672 28.6094 112.672 27.9531V24.3438C111.891 24.375 111 24.4219 110 24.4844C109 24.5156 107.969 24.625 106.906 24.8125C105.875 24.9688 104.906 25.25 104 25.6562C103.094 26.0312 102.359 26.5781 101.797 27.2969C101.266 27.9844 101 28.875 101 29.9688C101 31.2188 101.328 32.125 101.984 32.6875C102.672 33.25 103.625 33.5312 104.844 33.5312ZM155 37.1406C153.312 37.1406 152.219 36.375 151.719 34.8438L144.688 14.4531C144.625 14.2656 144.562 14.0781 144.5 13.8906C144.438 13.6719 144.406 13.4531 144.406 13.2344C144.406 12.5781 144.594 12.1094 144.969 11.8281C145.375 11.5469 145.875 11.4062 146.469 11.4062C147.094 11.4062 147.562 11.6094 147.875 12.0156C148.219 12.3906 148.484 12.8438 148.672 13.375L155 32.125L161.422 13.2344C161.578 12.7031 161.828 12.2656 162.172 11.9219C162.516 11.5781 162.984 11.4062 163.578 11.4062C164.203 11.4062 164.703 11.5469 165.078 11.8281C165.453 12.1094 165.641 12.5781 165.641 13.2344C165.641 13.3906 165.469 13.9688 165.125 14.9688C164.812 15.9688 164.391 17.2344 163.859 18.7656C163.359 20.2656 162.812 21.875 162.219 23.5938C161.656 25.2812 161.094 26.9219 160.531 28.5156C159.969 30.0781 159.484 31.4375 159.078 32.5938C158.672 33.7188 158.406 34.4688 158.281 34.8438C157.719 36.375 156.625 37.1406 155 37.1406ZM179.422 37.1406C178.141 37.1406 176.844 37 175.531 36.7188C174.25 36.4062 173.078 35.8438 172.016 35.0312C171.328 34.5 170.703 33.875 170.141 33.1562C169.609 32.4062 169.344 31.5625 169.344 30.625C169.344 29.9375 169.531 29.4531 169.906 29.1719C170.312 28.8906 170.828 28.75 171.453 28.75C172.109 28.75 172.641 28.9844 173.047 29.4531C173.453 29.9219 173.875 30.4688 174.312 31.0938C174.781 31.7188 175.391 32.2656 176.141 32.7344C176.922 33.2031 177.984 33.4375 179.328 33.4375C180.109 33.4375 180.859 33.3594 181.578 33.2031C182.297 33.0156 182.891 32.6719 183.359 32.1719C183.859 31.6719 184.109 30.9688 184.109 30.0625C184.109 29.2188 183.766 28.5156 183.078 27.9531C182.391 27.3906 181.5 26.8906 180.406 26.4531C179.344 26.0156 178.203 25.5781 176.984 25.1406C175.766 24.7031 174.609 24.2031 173.516 23.6406C172.453 23.0469 171.578 22.3125 170.891 21.4375C170.203 20.5625 169.859 19.4844 169.859 18.2031C169.859 16.6094 170.297 15.3125 171.172 14.3125C172.078 13.3125 173.203 12.5781 174.547 12.1094C175.922 11.6406 177.297 11.4062 178.672 11.4062C179.859 11.4062 181.031 11.5625 182.188 11.875C183.344 12.1562 184.391 12.6719 185.328 13.4219C185.953 13.9219 186.531 14.5156 187.062 15.2031C187.594 15.8594 187.859 16.5938 187.859 17.4062C187.859 18.0625 187.672 18.5312 187.297 18.8125C186.922 19.0938 186.422 19.2344 185.797 19.2344C185.109 19.2344 184.562 19.0312 184.156 18.625C183.781 18.1875 183.406 17.7031 183.031 17.1719C182.656 16.6406 182.141 16.1719 181.484 15.7656C180.859 15.3281 179.938 15.1094 178.719 15.1094C178.031 15.1094 177.359 15.1875 176.703 15.3438C176.047 15.5 175.5 15.7969 175.062 16.2344C174.625 16.6719 174.406 17.3125 174.406 18.1562C174.406 18.9688 174.75 19.6406 175.438 20.1719C176.125 20.7031 177 21.1719 178.062 21.5781C179.156 21.9844 180.312 22.4062 181.531 22.8438C182.75 23.25 183.891 23.75 184.953 24.3438C186.047 24.9062 186.938 25.6406 187.625 26.5469C188.312 27.4531 188.656 28.6094 188.656 30.0156C188.656 31.7656 188.203 33.1719 187.297 34.2344C186.391 35.2656 185.234 36.0156 183.828 36.4844C182.422 36.9219 180.953 37.1406 179.422 37.1406ZM227 37.1875C226.125 37.1875 225.516 36.9219 225.172 36.3906C224.859 35.8281 224.703 35.1562 224.703 34.375V5.21875H218.469C217.781 5.21875 217.219 5.0625 216.781 4.75C216.375 4.40625 216.172 3.85938 216.172 3.10938C216.172 2.39062 216.375 1.875 216.781 1.5625C217.219 1.21875 217.781 1.04688 218.469 1.04688H235.484C236.203 1.04688 236.766 1.21875 237.172 1.5625C237.609 1.875 237.828 2.40625 237.828 3.15625C237.828 3.90625 237.609 4.4375 237.172 4.75C236.734 5.0625 236.172 5.21875 235.484 5.21875H229.297V34.375C229.297 35.1562 229.125 35.8281 228.781 36.3906C228.469 36.9219 227.875 37.1875 227 37.1875ZM248.562 37.1406C246.375 37.1406 244.516 36.5469 242.984 35.3594C241.484 34.1719 240.734 32.4219 240.734 30.1094C240.734 28.3906 241.078 26.9844 241.766 25.8906C242.453 24.7656 243.375 23.8906 244.531 23.2656C245.688 22.6406 246.953 22.1875 248.328 21.9062C249.734 21.5938 251.156 21.4062 252.594 21.3438C254.062 21.25 255.422 21.1875 256.672 21.1562C256.672 19.8438 256.562 18.75 256.344 17.875C256.125 17 255.656 16.3438 254.938 15.9062C254.219 15.4375 253.109 15.2031 251.609 15.2031C250.359 15.2031 249.406 15.4219 248.75 15.8594C248.094 16.2969 247.562 16.8125 247.156 17.4062C246.781 17.9688 246.375 18.4688 245.938 18.9062C245.531 19.3438 244.938 19.5625 244.156 19.5625C243.531 19.5625 243 19.4219 242.562 19.1406C242.156 18.8281 241.953 18.3281 241.953 17.6406C241.953 17.1094 242.078 16.6094 242.328 16.1406C242.578 15.6406 242.859 15.1875 243.172 14.7812C244.172 13.5 245.391 12.625 246.828 12.1562C248.266 11.6562 249.766 11.4062 251.328 11.4062C253.172 11.4062 254.797 11.6875 256.203 12.25C257.641 12.7812 258.766 13.6562 259.578 14.875C260.422 16.0625 260.844 17.6562 260.844 19.6562V35.0312C260.844 36.4375 260.141 37.1406 258.734 37.1406C257.922 37.1406 257.375 36.9375 257.094 36.5312C256.812 36.125 256.672 35.625 256.672 35.0312C256.672 34.4375 256.672 33.8438 256.672 33.25C255.609 34.4062 254.391 35.3438 253.016 36.0625C251.672 36.7812 250.188 37.1406 248.562 37.1406ZM248.844 33.5312C249.844 33.5312 250.797 33.3594 251.703 33.0156C252.641 32.6406 253.484 32.1406 254.234 31.5156C254.672 31.1406 255.188 30.625 255.781 29.9688C256.375 29.2812 256.672 28.6094 256.672 27.9531V24.3438C255.891 24.375 255 24.4219 254 24.4844C253 24.5156 251.969 24.625 250.906 24.8125C249.875 24.9688 248.906 25.25 248 25.6562C247.094 26.0312 246.359 26.5781 245.797 27.2969C245.266 27.9844 245 28.875 245 29.9688C245 31.2188 245.328 32.125 245.984 32.6875C246.672 33.25 247.625 33.5312 248.844 33.5312ZM267.266 37.1406C266.484 37.1406 265.938 36.8906 265.625 36.3906C265.312 35.8906 265.156 35.2812 265.156 34.5625V13.7969C265.156 13.0781 265.312 12.5 265.625 12.0625C265.938 11.625 266.484 11.4062 267.266 11.4062C268.172 11.4062 268.766 11.6562 269.047 12.1562C269.328 12.6562 269.453 13.2656 269.422 13.9844C269.422 14.6719 269.422 15.3281 269.422 15.9531C270.422 14.6094 271.578 13.5156 272.891 12.6719C274.234 11.8281 275.766 11.4062 277.484 11.4062C280.141 11.4062 282.031 12.2031 283.156 13.7969C284.281 15.3594 284.844 17.375 284.844 19.8438V34.5625C284.844 35.3125 284.688 35.9375 284.375 36.4375C284.062 36.9062 283.5 37.1406 282.688 37.1406C281.906 37.1406 281.359 36.8906 281.047 36.3906C280.734 35.8906 280.578 35.2812 280.578 34.5625V20.5938C280.578 19.6562 280.469 18.7812 280.25 17.9688C280.031 17.1562 279.641 16.5 279.078 16C278.516 15.4688 277.688 15.2031 276.594 15.2031C274.594 15.2031 272.906 15.9688 271.531 17.5C271 18.0938 270.516 18.7656 270.078 19.5156C269.641 20.2344 269.422 21.0156 269.422 21.8594V34.5625C269.422 35.3125 269.266 35.9375 268.953 36.4375C268.641 36.9062 268.078 37.1406 267.266 37.1406ZM300.969 6.4375C298.938 6.4375 297.922 5.42188 297.922 3.39062C297.922 1.35937 298.953 0.34375 301.016 0.34375C301.828 0.34375 302.531 0.65625 303.125 1.28125C303.719 1.875 304.016 2.57812 304.016 3.39062C304.016 5.42188 303 6.4375 300.969 6.4375ZM294.172 42.7656C293.547 42.7656 293.031 42.6094 292.625 42.2969C292.25 42.0156 292.062 41.5312 292.062 40.8438C292.062 40.0938 292.266 39.5781 292.672 39.2969C293.078 39.0469 293.578 38.9219 294.172 38.9219C294.797 38.9219 295.406 38.9219 296 38.9219C297.312 38.9219 298.094 38.625 298.344 38.0312C298.625 37.4688 298.766 36.5625 298.766 35.3125V14.3125C298.766 13.5625 298.922 12.9375 299.234 12.4375C299.578 11.9062 300.156 11.6406 300.969 11.6406C301.781 11.6406 302.344 11.9062 302.656 12.4375C303 12.9375 303.172 13.5625 303.172 14.3125V35.5469C303.172 37.3281 303 38.7188 302.656 39.7188C302.312 40.7188 301.781 41.4219 301.062 41.8281C300.344 42.2656 299.406 42.5312 298.25 42.625C297.125 42.7188 295.766 42.7656 294.172 42.7656ZM323 6.4375C320.969 6.4375 319.953 5.42188 319.953 3.39062C319.953 1.35937 320.984 0.34375 323.047 0.34375C323.859 0.34375 324.562 0.65625 325.156 1.28125C325.75 1.875 326.047 2.57812 326.047 3.39062C326.047 5.42188 325.031 6.4375 323 6.4375ZM322.953 37.1406C322.141 37.1406 321.562 36.8906 321.219 36.3906C320.906 35.8906 320.75 35.2656 320.75 34.5156V14.3125C320.75 13.5625 320.906 12.9375 321.219 12.4375C321.562 11.9062 322.141 11.6406 322.953 11.6406C323.766 11.6406 324.328 11.9062 324.641 12.4375C324.984 12.9375 325.156 13.5625 325.156 14.3125V34.5156C325.156 35.2656 324.984 35.8906 324.641 36.3906C324.328 36.8906 323.766 37.1406 322.953 37.1406ZM342.922 37.1406C342.141 37.1406 341.594 36.8906 341.281 36.3906C340.969 35.8906 340.812 35.2812 340.812 34.5625V13.9844C340.812 13.2344 340.969 12.625 341.281 12.1562C341.594 11.6562 342.156 11.4062 342.969 11.4062C343.812 11.4062 344.375 11.6406 344.656 12.1094C344.938 12.5781 345.078 13.1406 345.078 13.7969C345.078 14.4219 345.078 15.0312 345.078 15.625C345.984 14.4688 347.016 13.4844 348.172 12.6719C349.359 11.8281 350.719 11.4062 352.25 11.4062C352.938 11.4062 353.469 11.5625 353.844 11.875C354.25 12.1875 354.453 12.7031 354.453 13.4219C354.453 14.2656 354.141 14.8438 353.516 15.1562C352.922 15.4688 352.266 15.6719 351.547 15.7656C350.609 15.8906 349.641 16.2031 348.641 16.7031C347.641 17.2031 346.797 17.8594 346.109 18.6719C345.422 19.4531 345.078 20.3906 345.078 21.4844V34.5625C345.078 35.3125 344.922 35.9375 344.609 36.4375C344.297 36.9062 343.734 37.1406 342.922 37.1406ZM371 37.1406C368.344 37.1406 366.266 36.5625 364.766 35.4062C363.297 34.2188 362.25 32.6562 361.625 30.7188C361.031 28.7812 360.734 26.6406 360.734 24.2969C360.734 21.8906 361.047 19.7188 361.672 17.7812C362.297 15.8438 363.375 14.2969 364.906 13.1406C366.438 11.9844 368.531 11.4062 371.188 11.4062C373.062 11.4062 374.641 11.7656 375.922 12.4844C377.203 13.2031 378.234 14.1875 379.016 15.4375C379.828 16.6562 380.406 18.0312 380.75 19.5625C381.094 21.0938 381.266 22.6875 381.266 24.3438C381.266 26.6875 380.953 28.8281 380.328 30.7656C379.734 32.7031 378.688 34.25 377.188 35.4062C375.719 36.5625 373.656 37.1406 371 37.1406ZM371 33.2969C372.25 33.2969 373.25 33.0312 374 32.5C374.781 31.9375 375.375 31.2188 375.781 30.3438C376.188 29.4688 376.469 28.5156 376.625 27.4844C376.781 26.4219 376.859 25.3906 376.859 24.3906C376.859 23.3906 376.781 22.3594 376.625 21.2969C376.5 20.2031 376.219 19.2031 375.781 18.2969C375.375 17.3906 374.781 16.6562 374 16.0938C373.25 15.5312 372.234 15.25 370.953 15.25C369.672 15.25 368.641 15.5625 367.859 16.1875C367.078 16.8125 366.484 17.625 366.078 18.625C365.703 19.625 365.438 20.6875 365.281 21.8125C365.156 22.9375 365.094 24 365.094 25C365.094 26.3438 365.25 27.6562 365.562 28.9375C365.875 30.1875 366.453 31.2344 367.297 32.0781C368.141 32.8906 369.375 33.2969 371 33.2969ZM417.219 37.1406C414.5 37.1406 412.328 36.3438 410.703 34.75C409.078 33.125 408.266 30.9531 408.266 28.2344C408.266 26.8281 408.547 25.4688 409.109 24.1562C409.672 22.8438 410.391 21.6094 411.266 20.4531C412.141 19.2969 413.047 18.2344 413.984 17.2656C413.391 16.3594 412.781 15.3906 412.156 14.3594C411.562 13.3281 411.062 12.2656 410.656 11.1719C410.25 10.0469 410.047 8.92188 410.047 7.79688C410.047 2.85937 412.547 0.390625 417.547 0.390625C419.922 0.390625 421.719 0.96875 422.938 2.125C424.188 3.28125 424.812 5.0625 424.812 7.46875C424.812 8.875 424.484 10.1875 423.828 11.4062C423.203 12.5938 422.406 13.7188 421.438 14.7812C420.5 15.8125 419.562 16.7969 418.625 17.7344L423.969 25.9844C424.219 24.9219 424.375 23.8438 424.438 22.75C424.5 21.6562 424.562 20.5781 424.625 19.5156C424.688 18.8906 424.828 18.3281 425.047 17.8281C425.266 17.3281 425.75 17.0781 426.5 17.0781C427.219 17.0781 427.703 17.2969 427.953 17.7344C428.234 18.1406 428.375 18.6562 428.375 19.2812C428.375 21.0938 428.25 22.9219 428 24.7656C427.75 26.5781 427.266 28.3125 426.547 29.9688C426.703 30.1875 426.953 30.5469 427.297 31.0469C427.641 31.5469 428 32.0938 428.375 32.6875C428.75 33.2812 429.078 33.8281 429.359 34.3281C429.641 34.8281 429.781 35.1875 429.781 35.4062C429.781 36.5625 429.172 37.1406 427.953 37.1406C427.422 37.1406 426.938 36.9219 426.5 36.4844C426.094 36.0156 425.719 35.5 425.375 34.9375C425.062 34.3438 424.781 33.8594 424.531 33.4844C423.562 34.5781 422.469 35.4688 421.25 36.1562C420.031 36.8125 418.688 37.1406 417.219 37.1406ZM416.703 14.7344C417.266 14.1719 417.875 13.5 418.531 12.7188C419.219 11.9062 419.797 11.0625 420.266 10.1875C420.766 9.28125 421.016 8.40625 421.016 7.5625C421.016 5.25 419.875 4.09375 417.594 4.09375C416.438 4.09375 415.516 4.375 414.828 4.9375C414.172 5.46875 413.844 6.34375 413.844 7.5625C413.844 8.8125 414.141 10.0781 414.734 11.3594C415.359 12.6094 416.016 13.7344 416.703 14.7344ZM417.219 33.2969C418.375 33.2969 419.375 33.0156 420.219 32.4531C421.094 31.8906 421.812 31.125 422.375 30.1562L416 20.4062C415.031 21.4375 414.172 22.6094 413.422 23.9219C412.672 25.2344 412.297 26.625 412.297 28.0938C412.297 29.75 412.688 31.0312 413.469 31.9375C414.25 32.8438 415.5 33.2969 417.219 33.2969ZM467.891 37.1406C465.891 37.1406 464.219 36.75 462.875 35.9688C461.531 35.1562 460.438 34.0938 459.594 32.7812C458.75 31.4375 458.109 29.9531 457.672 28.3281C457.234 26.7031 456.938 25.0312 456.781 23.3125C456.625 21.5625 456.547 19.9219 456.547 18.3906C456.547 16.8594 456.641 15.2656 456.828 13.6094C457.047 11.9531 457.391 10.3438 457.859 8.78125C458.359 7.21875 459.047 5.8125 459.922 4.5625C460.828 3.28125 461.953 2.26562 463.297 1.51562C464.641 0.765625 466.266 0.390625 468.172 0.390625C469.859 0.390625 471.359 0.71875 472.672 1.375C473.984 2.03125 475.078 3.09375 475.953 4.5625C476.359 5.21875 476.703 5.92188 476.984 6.67188C477.266 7.42188 477.406 8.1875 477.406 8.96875C477.406 10.2812 476.703 10.9375 475.297 10.9375C474.516 10.9375 473.938 10.7344 473.562 10.3281C473.219 9.89062 472.938 9.35938 472.719 8.73438C472.531 8.07812 472.281 7.4375 471.969 6.8125C471.688 6.15625 471.25 5.625 470.656 5.21875C470.062 4.78125 469.172 4.5625 467.984 4.5625C466.703 4.5625 465.641 4.875 464.797 5.5C463.953 6.125 463.281 6.95312 462.781 7.98438C462.281 9.01562 461.906 10.1406 461.656 11.3594C461.438 12.5781 461.281 13.7812 461.188 14.9688C461.125 16.1562 461.094 17.2031 461.094 18.1094C461.094 18.9844 461.125 20.0625 461.188 21.3438C461.25 22.625 461.391 23.9531 461.609 25.3281C461.828 26.6719 462.172 27.9375 462.641 29.125C463.141 30.3125 463.812 31.2812 464.656 32.0312C465.5 32.75 466.578 33.1094 467.891 33.1094C469.578 33.1094 470.844 32.6562 471.688 31.75C472.531 30.8438 472.953 29.5625 472.953 27.9062V22.8906C472.953 22.2969 472.766 21.9219 472.391 21.7656C472.047 21.5781 471.609 21.5 471.078 21.5312C470.547 21.5312 470 21.5312 469.438 21.5312C468.781 21.5312 468.203 21.4219 467.703 21.2031C467.203 20.9531 466.953 20.3906 466.953 19.5156C466.953 18.7344 467.188 18.2031 467.656 17.9219C468.125 17.6406 468.703 17.5 469.391 17.5H473.234C474.391 17.5 475.359 17.7656 476.141 18.2969C476.953 18.8281 477.359 19.7344 477.359 21.0156V27.7656C477.359 30.6719 476.5 32.9688 474.781 34.6562C473.094 36.3125 470.797 37.1406 467.891 37.1406ZM491 6.4375C488.969 6.4375 487.953 5.42188 487.953 3.39062C487.953 1.35937 488.984 0.34375 491.047 0.34375C491.859 0.34375 492.562 0.65625 493.156 1.28125C493.75 1.875 494.047 2.57812 494.047 3.39062C494.047 5.42188 493.031 6.4375 491 6.4375ZM490.953 37.1406C490.141 37.1406 489.562 36.8906 489.219 36.3906C488.906 35.8906 488.75 35.2656 488.75 34.5156V14.3125C488.75 13.5625 488.906 12.9375 489.219 12.4375C489.562 11.9062 490.141 11.6406 490.953 11.6406C491.766 11.6406 492.328 11.9062 492.641 12.4375C492.984 12.9375 493.156 13.5625 493.156 14.3125V34.5156C493.156 35.2656 492.984 35.8906 492.641 36.3906C492.328 36.8906 491.766 37.1406 490.953 37.1406ZM511.484 42.7656C510.891 42.7656 510.391 42.625 509.984 42.3438C509.578 42.0938 509.375 41.625 509.375 40.9375C509.375 40.7188 509.531 40.2031 509.844 39.3906C510.188 38.5781 510.578 37.6719 511.016 36.6719C511.453 35.6719 511.875 34.75 512.281 33.9062C512.688 33.0312 512.953 32.4375 513.078 32.125L504.922 14.6875C504.828 14.4688 504.734 14.25 504.641 14.0312C504.578 13.7812 504.547 13.5469 504.547 13.3281C504.547 12.6406 504.734 12.1562 505.109 11.875C505.516 11.5625 506.031 11.4062 506.656 11.4062C507.188 11.4062 507.609 11.5625 507.922 11.875C508.266 12.1875 508.547 12.5625 508.766 13L515.281 27.0625L521.469 13.0469C521.656 12.6094 521.922 12.2344 522.266 11.9219C522.641 11.5781 523.078 11.4062 523.578 11.4062C524.984 11.4062 525.688 12.0625 525.688 13.375C525.688 13.625 525.641 13.875 525.547 14.125C525.453 14.375 525.359 14.625 525.266 14.875L513.734 41.0312C513.516 41.5312 513.219 41.9375 512.844 42.25C512.5 42.5938 512.047 42.7656 511.484 42.7656ZM536.516 37.1406C533.859 37.1406 531.969 36.3594 530.844 34.7969C529.719 33.2031 529.156 31.1719 529.156 28.7031V13.9844C529.156 13.2344 529.312 12.625 529.625 12.1562C529.938 11.6562 530.5 11.4062 531.312 11.4062C532.125 11.4062 532.672 11.6562 532.953 12.1562C533.266 12.6562 533.422 13.2656 533.422 13.9844V28C533.422 28.9062 533.531 29.7812 533.75 30.625C533.969 31.4375 534.359 32.0938 534.922 32.5938C535.516 33.0938 536.344 33.3438 537.406 33.3438C539.438 33.3438 541.141 32.5781 542.516 31.0469C543.047 30.4531 543.516 29.7812 543.922 29.0312C544.359 28.2812 544.578 27.5 544.578 26.6875V13.9844C544.578 13.2344 544.734 12.625 545.047 12.1562C545.359 11.6562 545.922 11.4062 546.734 11.4062C547.547 11.4062 548.094 11.6562 548.375 12.1562C548.688 12.6562 548.844 13.2656 548.844 13.9844V34.7969C548.844 35.5156 548.672 36.0938 548.328 36.5312C547.984 36.9375 547.438 37.1406 546.688 37.1406C545.812 37.1406 545.234 36.8906 544.953 36.3906C544.672 35.8906 544.531 35.2812 544.531 34.5625C544.562 33.8438 544.578 33.1875 544.578 32.5938C543.578 33.9375 542.406 35.0312 541.062 35.875C539.75 36.7188 538.234 37.1406 536.516 37.1406Z" fill="url(#paint0_linear_74_93)"/>
<defs>
<linearGradient id="paint0_linear_74_93" x1="275" y1="-5" x2="275" y2="58" gradientUnits="userSpaceOnUse">
<stop stop-color="#305075"/>
<stop offset="1" stop-color="white"/>
</linearGradient>
</defs>
</svg>
